<svg width="21" height="21" viewBox="0 0 21 21" fill="none" xmlns="http://www.w3.org/2000/svg">
<path d="M10 6C8.9 6 7.95833 6.39167 7.175 7.175C6.39167 7.95833 6 8.9 6 10C6 10.75 6.1875 11.4417 6.5625 12.075C6.9375 12.7083 7.45833 13.2 8.125 13.55C8.39167 13.6833 8.57917 13.8792 8.6875 14.1375C8.79583 14.3958 8.79167 14.6583 8.675 14.925C8.55833 15.1583 8.38333 15.3333 8.15 15.45C7.91667 15.5667 7.68333 15.5667 7.45 15.45C6.4 14.95 5.5625 14.2083 4.9375 13.225C4.3125 12.2417 4 11.1667 4 10C4 8.33333 4.58333 6.91667 5.75 5.75C6.91667 4.58333 8.33333 4 10 4C11.1833 4 12.2708 4.3125 13.2625 4.9375C14.2542 5.5625 14.9917 6.41667 15.475 7.5C15.575 7.73333 15.5708 7.96667 15.4625 8.2C15.3542 8.43333 15.1833 8.6 14.95 8.7C14.6833 8.81667 14.4167 8.81667 14.15 8.7C13.8833 8.58333 13.6833 8.39167 13.55 8.125C13.2 7.45833 12.7083 6.9375 12.075 6.5625C11.4417 6.1875 10.75 6 10 6ZM10 2C7.76667 2 5.875 2.775 4.325 4.325C2.775 5.875 2 7.76667 2 10C2 12.1 2.69167 13.9 4.075 15.4C5.45833 16.9 7.19167 17.75 9.275 17.95C9.55833 17.9833 9.80417 18.1083 10.0125 18.325C10.2208 18.5417 10.3167 18.7917 10.3 19.075C10.2833 19.3583 10.1792 19.5917 9.9875 19.775C9.79583 19.9583 9.55833 20.0417 9.275 20.025C7.975 19.9417 6.7625 19.6167 5.6375 19.05C4.5125 18.4833 3.52917 17.7458 2.6875 16.8375C1.84583 15.9292 1.1875 14.8875 0.7125 13.7125C0.2375 12.5375 0 11.3 0 10C0 8.61667 0.2625 7.31667 0.7875 6.1C1.3125 4.88333 2.025 3.825 2.925 2.925C3.825 2.025 4.88333 1.3125 6.1 0.7875C7.31667 0.2625 8.61667 0 10 0C12.6167 0 14.8958 0.891667 16.8375 2.675C18.7792 4.45833 19.8417 6.65833 20.025 9.275C20.0583 9.54167 19.9792 9.77083 19.7875 9.9625C19.5958 10.1542 19.3583 10.2583 19.075 10.275C18.7917 10.2917 18.5375 10.2 18.3125 10C18.0875 9.8 17.9583 9.55833 17.925 9.275C17.675 7.275 16.8042 5.5625 15.3125 4.1375C13.8208 2.7125 12.05 2 10 2ZM17.55 19.5L14.25 16.225L13.5 18.5C13.4167 18.7333 13.2583 18.8458 13.025 18.8375C12.7917 18.8292 12.6333 18.7083 12.55 18.475L10.275 10.9C10.2083 10.7167 10.25 10.55 10.4 10.4C10.55 10.25 10.7167 10.2083 10.9 10.275L18.475 12.55C18.7083 12.6333 18.8292 12.7917 18.8375 13.025C18.8458 13.2583 18.7333 13.4167 18.5 13.5L16.225 14.25L19.525 17.55C19.8083 17.8333 19.95 18.1583 19.95 18.525C19.95 18.8917 19.8083 19.2167 19.525 19.5C19.2417 19.7833 18.9125 19.925 18.5375 19.925C18.1625 19.925 17.8333 19.7833 17.55 19.5Z" fill="#2C324C"/>
</svg>
