<svg width="24" height="24" viewBox="0 0 24 24" fill="none" xmlns="http://www.w3.org/2000/svg">
<g clip-path="url(#clip0_3027_6257)">
<path d="M18.9999 16.9C20.2151 16.6532 21.2952 15.9638 22.0306 14.9655C22.766 13.9671 23.1043 12.7312 22.9796 11.4975C22.855 10.2638 22.2765 9.12046 21.3563 8.28937C20.4361 7.45828 19.2399 6.99875 17.9999 6.99999H16.7399C16.4086 5.71731 15.764 4.53698 14.8638 3.56498C13.9637 2.59298 12.8363 1.85972 11.5828 1.43106C10.3292 1.00239 8.98891 0.891726 7.68207 1.109C6.37523 1.32628 5.1428 1.86469 4.09544 2.6759C3.04808 3.48711 2.21856 4.54573 1.68137 5.75671C1.14418 6.96768 0.916124 8.29311 1.01769 9.61399C1.11925 10.9349 1.54725 12.2098 2.26326 13.3245C2.97926 14.4391 3.96087 15.3584 5.11993 16" stroke="#696D80" stroke-width="2" stroke-linecap="round" stroke-linejoin="round"/>
<path d="M13 11L9 17H15L11 23" stroke="#696D80" stroke-width="2" stroke-linecap="round" stroke-linejoin="round"/>
</g>
<defs>
<clipPath id="clip0_3027_6257">
<rect width="24" height="24" fill="white"/>
</clipPath>
</defs>
</svg>
