<svg width="20" height="19" viewBox="0 0 20 19" fill="none" xmlns="http://www.w3.org/2000/svg">
<path d="M18 18H10C9.71667 18 9.47917 17.9042 9.2875 17.7125C9.09583 17.5208 9 17.2833 9 17C9 16.7167 9.09583 16.4792 9.2875 16.2875C9.47917 16.0958 9.71667 16 10 16H18V2H4V5C4 5.28333 3.90417 5.52083 3.7125 5.7125C3.52083 5.90417 3.28333 6 3 6C2.71667 6 2.47917 5.90417 2.2875 5.7125C2.09583 5.52083 2 5.28333 2 5V2C2 1.45 2.19583 0.979167 2.5875 0.5875C2.97917 0.195833 3.45 0 4 0H18C18.55 0 19.0208 0.195833 19.4125 0.5875C19.8042 0.979167 20 1.45 20 2V16C20 16.55 19.8042 17.0208 19.4125 17.4125C19.0208 17.8042 18.55 18 18 18ZM2 19C1.71667 19 1.47917 18.9042 1.2875 18.7125C1.09583 18.5208 1 18.2833 1 18C1 17.7167 1.09583 17.4792 1.2875 17.2875C1.47917 17.0958 1.71667 17 2 17H3.55C2.75 16.6167 2.10417 16.05 1.6125 15.3C1.12083 14.55 0.875 13.7 0.875 12.75C0.875 11.4333 1.3375 10.3125 2.2625 9.3875C3.1875 8.4625 4.30833 8 5.625 8C5.90833 8 6.14583 8.09583 6.3375 8.2875C6.52917 8.47917 6.625 8.71667 6.625 9C6.625 9.28333 6.52917 9.52083 6.3375 9.7125C6.14583 9.90417 5.90833 10 5.625 10C4.875 10 4.22917 10.2667 3.6875 10.8C3.14583 11.3333 2.875 11.9833 2.875 12.75C2.875 13.4 3.075 13.975 3.475 14.475C3.875 14.975 4.38333 15.2917 5 15.425V14C5 13.7167 5.09583 13.4792 5.2875 13.2875C5.47917 13.0958 5.71667 13 6 13C6.28333 13 6.52083 13.0958 6.7125 13.2875C6.90417 13.4792 7 13.7167 7 14V18C7 18.2833 6.90417 18.5208 6.7125 18.7125C6.52083 18.9042 6.28333 19 6 19H2ZM10 14H12C12.2833 14 12.5208 13.9042 12.7125 13.7125C12.9042 13.5208 13 13.2833 13 13C13 12.7167 12.9042 12.4792 12.7125 12.2875C12.5208 12.0958 12.2833 12 12 12H10C9.71667 12 9.47917 12.0958 9.2875 12.2875C9.09583 12.4792 9 12.7167 9 13C9 13.2833 9.09583 13.5208 9.2875 13.7125C9.47917 13.9042 9.71667 14 10 14ZM10 10H15C15.2833 10 15.5208 9.90417 15.7125 9.7125C15.9042 9.52083 16 9.28333 16 9C16 8.71667 15.9042 8.47917 15.7125 8.2875C15.5208 8.09583 15.2833 8 15 8H10C9.71667 8 9.47917 8.09583 9.2875 8.2875C9.09583 8.47917 9 8.71667 9 9C9 9.28333 9.09583 9.52083 9.2875 9.7125C9.47917 9.90417 9.71667 10 10 10ZM7 6H15C15.2833 6 15.5208 5.90417 15.7125 5.7125C15.9042 5.52083 16 5.28333 16 5C16 4.71667 15.9042 4.47917 15.7125 4.2875C15.5208 4.09583 15.2833 4 15 4H7C6.71667 4 6.47917 4.09583 6.2875 4.2875C6.09583 4.47917 6 4.71667 6 5C6 5.28333 6.09583 5.52083 6.2875 5.7125C6.47917 5.90417 6.71667 6 7 6Z" fill="#2C324C"/>
</svg>
