<svg width="310" height="65" viewBox="0 0 310 65" fill="none" xmlns="http://www.w3.org/2000/svg">
<path opacity="0.6" d="M65.3223 21V15.4434L60.3809 6.9082H63.1348L66.543 13.041H66.6113L70.0195 6.9082H72.7734L67.832 15.4434V21H65.3223ZM76.5723 21.2051C73.5254 21.2051 71.5625 19.1738 71.5625 15.8242V15.8047C71.5625 12.4844 73.5547 10.4336 76.5625 10.4336C79.5801 10.4336 81.582 12.4648 81.582 15.8047V15.8242C81.582 19.1836 79.6094 21.2051 76.5723 21.2051ZM76.582 19.2422C78.1152 19.2422 79.1016 17.9922 79.1016 15.8242V15.8047C79.1016 13.6465 78.1055 12.4062 76.5625 12.4062C75.0488 12.4062 74.043 13.6562 74.043 15.8047V15.8242C74.043 18.002 75.0293 19.2422 76.582 19.2422ZM86.6699 21.2051C84.3945 21.2051 83.0957 19.7402 83.0957 17.3379V10.6484H85.5273V16.8594C85.5273 18.3242 86.2109 19.1543 87.5977 19.1543C88.9941 19.1543 89.8828 18.1484 89.8828 16.6445V10.6484H92.3145V21H89.8828V19.3789H89.834C89.2969 20.4824 88.2324 21.2051 86.6699 21.2051ZM96.4062 21V9.02734H92.1875V6.9082H103.125V9.02734H98.916V21H96.4062ZM106.514 21.2051C104.238 21.2051 102.939 19.7402 102.939 17.3379V10.6484H105.371V16.8594C105.371 18.3242 106.055 19.1543 107.441 19.1543C108.838 19.1543 109.727 18.1484 109.727 16.6445V10.6484H112.158V21H109.727V19.3789H109.678C109.141 20.4824 108.076 21.2051 106.514 21.2051ZM119.941 21.2051C118.447 21.2051 117.305 20.4629 116.719 19.2422H116.66V21H114.229V6.9082H116.66V12.4258H116.719C117.305 11.1855 118.486 10.4336 119.951 10.4336C122.549 10.4336 124.219 12.4746 124.219 15.8145V15.8242C124.219 19.1543 122.559 21.2051 119.941 21.2051ZM119.209 19.1543C120.771 19.1543 121.738 17.8848 121.738 15.8242V15.8145C121.738 13.7539 120.762 12.4844 119.209 12.4844C117.715 12.4844 116.66 13.793 116.66 15.8145V15.8242C116.66 17.8555 117.705 19.1543 119.209 19.1543ZM130.332 21.2051C127.227 21.2051 125.352 19.1445 125.352 15.8535V15.8438C125.352 12.582 127.256 10.4336 130.215 10.4336C133.174 10.4336 135.01 12.5137 135.01 15.6387V16.4199H127.764C127.803 18.2363 128.799 19.3105 130.381 19.3105C131.592 19.3105 132.383 18.666 132.617 17.9727L132.637 17.9043H134.912L134.883 18.0117C134.561 19.6035 133.037 21.2051 130.332 21.2051ZM130.244 12.3379C128.955 12.3379 127.988 13.207 127.793 14.7988H132.646C132.471 13.1582 131.533 12.3379 130.244 12.3379ZM140.83 21V6.9082H149.814V9.02734H143.35V13.1973H149.258V15.248H143.35V21H140.83ZM155.625 21.2051C152.52 21.2051 150.645 19.1445 150.645 15.8535V15.8438C150.645 12.582 152.549 10.4336 155.508 10.4336C158.467 10.4336 160.303 12.5137 160.303 15.6387V16.4199H153.057C153.096 18.2363 154.092 19.3105 155.674 19.3105C156.885 19.3105 157.676 18.666 157.91 17.9727L157.93 17.9043H160.205L160.176 18.0117C159.854 19.6035 158.33 21.2051 155.625 21.2051ZM155.537 12.3379C154.248 12.3379 153.281 13.207 153.086 14.7988H157.939C157.764 13.1582 156.826 12.3379 155.537 12.3379ZM166.426 21.2051C163.32 21.2051 161.445 19.1445 161.445 15.8535V15.8438C161.445 12.582 163.35 10.4336 166.309 10.4336C169.268 10.4336 171.104 12.5137 171.104 15.6387V16.4199H163.857C163.896 18.2363 164.893 19.3105 166.475 19.3105C167.686 19.3105 168.477 18.666 168.711 17.9727L168.73 17.9043H171.006L170.977 18.0117C170.654 19.6035 169.131 21.2051 166.426 21.2051ZM166.338 12.3379C165.049 12.3379 164.082 13.207 163.887 14.7988H168.74C168.564 13.1582 167.627 12.3379 166.338 12.3379ZM176.523 21.2051C173.906 21.2051 172.246 19.1543 172.246 15.8242V15.8145C172.246 12.4746 173.916 10.4336 176.514 10.4336C177.979 10.4336 179.16 11.1855 179.746 12.4258H179.805V6.9082H182.236V21H179.805V19.2422H179.746C179.16 20.4629 178.018 21.2051 176.523 21.2051ZM177.256 19.1543C178.76 19.1543 179.805 17.8555 179.805 15.8242V15.8145C179.805 13.793 178.75 12.4844 177.256 12.4844C175.703 12.4844 174.727 13.7539 174.727 15.8145V15.8242C174.727 17.8848 175.693 19.1543 177.256 19.1543ZM194.062 21.2051C192.568 21.2051 191.426 20.4629 190.84 19.2422H190.781V21H188.35V6.9082H190.781V12.4258H190.84C191.426 11.1855 192.607 10.4336 194.072 10.4336C196.67 10.4336 198.34 12.4746 198.34 15.8145V15.8242C198.34 19.1543 196.68 21.2051 194.062 21.2051ZM193.33 19.1543C194.893 19.1543 195.859 17.8848 195.859 15.8242V15.8145C195.859 13.7539 194.883 12.4844 193.33 12.4844C191.836 12.4844 190.781 13.793 190.781 15.8145V15.8242C190.781 17.8555 191.826 19.1543 193.33 19.1543ZM200.918 24.4375C200.449 24.4375 199.961 24.3789 199.668 24.3301V22.4746C199.854 22.5137 200.137 22.5625 200.479 22.5625C201.406 22.5625 201.924 22.2988 202.236 21.4297L202.383 21.0098L198.662 10.6484H201.318L203.74 18.9297H203.809L206.24 10.6484H208.799L205.078 21.3516C204.287 23.627 203.076 24.4375 200.918 24.4375Z" fill="#141B38"/>
<path d="M78.195 36.4862C75.0754 34.1665 72.1157 33.8466 70.2759 33.8466C67.7962 33.8466 65.5565 34.3665 63.6768 36.2863C62.0769 37.9261 61.357 39.9258 61.357 42.2855C61.357 43.5654 61.557 45.4451 62.9568 46.925C63.9967 48.0448 65.4365 48.6048 66.6764 49.0447L68.8761 49.8046C69.636 50.0846 71.2758 50.6845 71.9957 51.2844C72.5557 51.7644 72.9156 52.3243 72.9156 53.2042C72.9156 54.2041 72.4757 54.924 71.9557 55.3639C71.0758 56.1238 69.956 56.2838 69.1561 56.2838C67.9162 56.2838 66.8364 55.9639 65.7965 55.3239C65.0766 54.884 63.9967 53.9641 63.3168 53.2842L60.1172 57.6837C61.1171 58.6835 62.6769 59.9234 64.0367 60.6033C65.7165 61.4432 67.3963 61.7232 69.3161 61.7232C71.0758 61.7232 74.5154 61.4832 76.8751 59.0035C78.275 57.5637 79.2348 55.164 79.2348 52.4043C79.2348 50.8445 78.8349 48.9247 77.2751 47.4449C76.2352 46.445 74.7954 45.8451 73.6355 45.4052L71.6358 44.6452C69.836 43.9653 68.9161 43.7254 68.2762 43.1254C67.8762 42.7655 67.6763 42.2855 67.6763 41.6456C67.6763 40.9657 67.9562 40.3658 68.3562 39.9658C69.0761 39.1659 70.116 39.0459 70.9559 39.0459C71.7158 39.0459 73.4356 39.1659 75.4353 40.9657L78.195 36.4862Z" fill="#141B38"/>
<path d="M81.7867 61.1232H87.546V52.0043C87.546 51.4044 87.586 49.4047 88.6659 48.3648C89.2258 47.8449 89.9057 47.6449 90.6656 47.6449C91.2656 47.6449 91.9855 47.7649 92.5854 48.3648C93.4653 49.2447 93.5053 50.6445 93.5053 51.8444V61.1232H99.2646V52.2443C99.2646 51.0845 99.3846 49.6846 100.144 48.7247C100.624 48.0848 101.424 47.6449 102.384 47.6449C103.224 47.6449 103.984 48.0048 104.464 48.6048C105.224 49.5646 105.224 51.1644 105.224 52.0843V61.1232H110.983V49.8446C110.983 48.5648 110.863 46.1651 109.143 44.5253C108.064 43.4854 106.304 42.8455 104.144 42.8455C102.744 42.8455 101.584 43.0854 100.344 43.8453C99.1846 44.5653 98.5047 45.4052 98.0647 46.1251C97.5848 45.0452 96.8249 44.1653 95.905 43.6454C94.7051 42.9255 93.3053 42.8455 92.5454 42.8455C91.1856 42.8455 89.0258 43.1254 87.546 45.3652V43.2854H81.7867V61.1232Z" fill="#141B38"/>
<path d="M127.972 45.2852C126.332 43.0454 123.893 42.6855 122.373 42.6855C119.893 42.6855 117.733 43.5654 116.173 45.1252C114.534 46.765 113.414 49.3247 113.414 52.3243C113.414 54.684 114.134 57.0037 116.013 59.0035C117.973 61.0832 120.133 61.7232 122.693 61.7232C124.172 61.7232 126.412 61.3632 127.972 58.9635V61.1232H133.731V43.2854H127.972V45.2852ZM123.813 47.6449C124.852 47.6449 126.132 48.0448 127.012 48.8847C127.852 49.6846 128.332 50.8845 128.332 52.1643C128.332 53.6841 127.692 54.804 126.932 55.5239C126.172 56.2838 125.092 56.7638 123.932 56.7638C122.573 56.7638 121.333 56.2038 120.533 55.3639C120.013 54.804 119.333 53.7641 119.333 52.1643C119.333 50.5645 120.053 49.5246 120.653 48.9247C121.413 48.1648 122.573 47.6449 123.813 47.6449Z" fill="#141B38"/>
<path d="M150.196 44.2053C148.756 43.3654 146.916 42.6855 144.276 42.6855C142.636 42.6855 140.477 43.0054 138.877 44.4853C137.837 45.4451 137.157 46.885 137.157 48.6048C137.157 49.9646 137.597 50.9645 138.437 51.8444C139.197 52.6043 140.277 53.1642 141.317 53.4842L142.756 53.9241C143.596 54.1641 144.116 54.3241 144.516 54.564C145.036 54.884 145.156 55.2839 145.156 55.6039C145.156 56.0439 144.916 56.4838 144.556 56.7638C144.036 57.1637 143.116 57.1637 142.756 57.1637C141.997 57.1637 141.157 57.0037 140.357 56.6038C139.757 56.3238 138.957 55.7639 138.397 55.2839L135.957 59.1635C138.277 61.2032 140.877 61.7232 143.276 61.7232C145.156 61.7232 147.316 61.4432 149.076 59.6834C149.876 58.8835 150.915 57.3637 150.915 55.004C150.915 53.6441 150.555 52.5643 149.516 51.6044C148.596 50.7645 147.556 50.3645 146.556 50.0446L145.036 49.5646C144.316 49.3247 143.716 49.2047 143.316 48.9647C143.036 48.8047 142.756 48.5648 142.756 48.1648C142.756 47.8848 142.916 47.5649 143.116 47.3649C143.476 47.005 144.156 46.845 144.756 46.845C145.876 46.845 147.036 47.3249 147.916 47.8449L150.196 44.2053Z" fill="#141B38"/>
<path d="M153.299 61.1232H159.058V52.2043C159.058 51.3244 159.098 49.6046 160.258 48.4848C160.578 48.1648 161.298 47.6049 162.538 47.6049C163.378 47.6049 164.258 47.8848 164.778 48.4048C165.697 49.2847 165.737 50.7245 165.737 51.9643V61.1232H171.497V49.8046C171.497 48.4448 171.377 46.245 169.737 44.6052C168.177 43.0054 166.097 42.8055 164.698 42.8055C163.418 42.8055 162.418 42.9255 161.218 43.5654C160.538 43.9253 159.778 44.5253 159.058 45.4052V31.9668H153.299V61.1232Z" fill="#141B38"/>
<path d="M183.603 34.4465V61.1232H193.641C195.281 61.1232 198.481 60.9633 200.681 58.8435C201.72 57.8036 202.76 56.1238 202.76 53.4442C202.76 51.0845 201.92 49.5646 201.041 48.6848C200.081 47.7249 198.641 47.0849 197.361 46.885C198.001 46.605 198.921 46.0451 199.601 44.9252C200.321 43.7654 200.481 42.5655 200.481 41.5256C200.481 40.3658 200.281 38.126 198.561 36.4862C196.481 34.5265 193.202 34.4465 191.762 34.4465H183.603ZM189.682 39.2459H190.642C191.762 39.2459 192.962 39.2459 193.841 39.9258C194.321 40.2858 194.881 41.0057 194.881 42.1655C194.881 43.3254 194.361 44.1253 193.801 44.5253C192.922 45.1652 191.522 45.2852 190.682 45.2852H189.682V39.2459ZM189.682 49.8446H191.362C192.602 49.8446 194.681 49.8446 195.761 50.8445C196.161 51.2044 196.601 51.9244 196.601 53.0042C196.601 53.9641 196.281 54.724 195.721 55.2439C194.601 56.2838 192.722 56.3238 191.162 56.3238H189.682V49.8446Z" fill="#141B38"/>
<path d="M219.148 45.2852C217.509 43.0454 215.069 42.6855 213.549 42.6855C211.069 42.6855 208.91 43.5654 207.35 45.1252C205.71 46.765 204.59 49.3247 204.59 52.3243C204.59 54.684 205.31 57.0037 207.19 59.0035C209.15 61.0832 211.309 61.7232 213.869 61.7232C215.349 61.7232 217.589 61.3632 219.148 58.9635V61.1232H224.908V43.2854H219.148V45.2852ZM214.989 47.6449C216.029 47.6449 217.309 48.0448 218.188 48.8847C219.028 49.6846 219.508 50.8845 219.508 52.1643C219.508 53.6841 218.868 54.804 218.108 55.5239C217.349 56.2838 216.269 56.7638 215.109 56.7638C213.749 56.7638 212.509 56.2038 211.709 55.3639C211.189 54.804 210.509 53.7641 210.509 52.1643C210.509 50.5645 211.229 49.5246 211.829 48.9247C212.589 48.1648 213.749 47.6449 214.989 47.6449Z" fill="#141B38"/>
<path d="M228.333 31.9668V61.1232H234.093V31.9668H228.333Z" fill="#141B38"/>
<path d="M237.679 31.9668V61.1232H243.439V31.9668H237.679Z" fill="#141B38"/>
<path d="M266.943 52.2043C266.943 49.9246 266.063 47.3649 264.263 45.5651C262.663 43.9653 259.943 42.6855 256.464 42.6855C252.984 42.6855 250.265 43.9653 248.665 45.5651C246.865 47.3649 245.985 49.9246 245.985 52.2043C245.985 54.484 246.865 57.0437 248.665 58.8435C250.265 60.4433 252.984 61.7232 256.464 61.7232C259.943 61.7232 262.663 60.4433 264.263 58.8435C266.063 57.0437 266.943 54.484 266.943 52.2043ZM256.464 47.5649C257.784 47.5649 258.863 48.0048 259.703 48.8447C260.543 49.6846 261.023 50.7645 261.023 52.2043C261.023 53.6441 260.543 54.724 259.703 55.5639C258.863 56.4038 257.784 56.8438 256.504 56.8438C254.984 56.8438 253.944 56.2838 253.224 55.5639C252.544 54.884 251.904 53.8441 251.904 52.2043C251.904 50.7645 252.384 49.6846 253.224 48.8447C254.064 48.0048 255.144 47.5649 256.464 47.5649Z" fill="#141B38"/>
<path d="M289.412 52.2043C289.412 49.9246 288.532 47.3649 286.732 45.5651C285.132 43.9653 282.412 42.6855 278.933 42.6855C275.453 42.6855 272.734 43.9653 271.134 45.5651C269.334 47.3649 268.454 49.9246 268.454 52.2043C268.454 54.484 269.334 57.0437 271.134 58.8435C272.734 60.4433 275.453 61.7232 278.933 61.7232C282.412 61.7232 285.132 60.4433 286.732 58.8435C288.532 57.0437 289.412 54.484 289.412 52.2043ZM278.933 47.5649C280.253 47.5649 281.333 48.0048 282.172 48.8447C283.012 49.6846 283.492 50.7645 283.492 52.2043C283.492 53.6441 283.012 54.724 282.172 55.5639C281.333 56.4038 280.253 56.8438 278.973 56.8438C277.453 56.8438 276.413 56.2838 275.693 55.5639C275.013 54.884 274.373 53.8441 274.373 52.2043C274.373 50.7645 274.853 49.6846 275.693 48.8447C276.533 48.0048 277.613 47.5649 278.933 47.5649Z" fill="#141B38"/>
<path d="M291.803 61.1232H297.562V51.9643C297.562 50.8045 297.723 49.5246 298.682 48.5648C299.122 48.0848 299.882 47.6049 301.082 47.6049C302.122 47.6049 302.842 47.9648 303.282 48.4048C304.202 49.3247 304.242 50.8045 304.242 51.9643V61.1232H310.001V49.8446C310.001 48.4048 309.881 46.285 308.201 44.6052C306.681 43.0854 304.642 42.8055 303.082 42.8055C301.402 42.8055 299.322 43.1654 297.562 45.4052V43.2854H291.803V61.1232Z" fill="#141B38"/>
<path fill-rule="evenodd" clip-rule="evenodd" d="M46.1021 32.5173C46.1021 16.7775 35.7849 4.0177 23.0534 4.0177C10.3219 4.0177 0 16.7775 0 32.5173C0 47.6065 9.4543 59.9183 21.4266 60.951L20.1535 64.9826L28.1366 64.3036L25.3356 60.8802C36.992 59.4656 46.1021 47.3094 46.1021 32.5173Z" fill="#FE544F"/>
<path fill-rule="evenodd" clip-rule="evenodd" d="M28.5481 14.0355L29.6573 25.4809L41.1508 25.8111L32.8366 33.5416L39.4034 43.0395L28.3407 40.96L24.9869 52.0229L19.8946 42.1161L9.61262 46.8274L13.568 36.2071L3.54004 31.1491L14.2746 27.6968L11.3125 17.122L21.4682 22.9118L28.5481 14.0355Z" fill="white"/>
</svg>