<svg width="14" height="14" viewBox="0 0 14 14" fill="none" xmlns="http://www.w3.org/2000/svg">
<path d="M11.546 1.84015C10.535 1.01003 9.30099 0.497425 7.99935 0.366821V1.71349C8.97268 1.83349 9.85935 2.22015 10.5993 2.79349L11.546 1.84015ZM12.6193 6.33349H13.966C13.8327 4.99349 13.2993 3.77349 12.4927 2.78682L11.5393 3.73349C12.1274 4.48679 12.5006 5.38523 12.6193 6.33349ZM11.5393 10.2668L12.4927 11.2202C13.3217 10.2084 13.8342 8.97482 13.966 7.67349H12.6193C12.4993 8.61938 12.1262 9.51534 11.5393 10.2668ZM7.99935 12.2868V13.6335C9.33935 13.5002 10.5593 12.9668 11.546 12.1602L10.5927 11.2068C9.85935 11.7802 8.97268 12.1668 7.99935 12.2868ZM9.72601 6.06015L7.99935 7.78015V3.66682H6.66601V7.78015L4.93935 6.05349L3.99935 7.00015L7.33268 10.3335L10.666 7.00015L9.72601 6.06015ZM6.66601 12.2868V13.6335C3.29935 13.3002 0.666016 10.4602 0.666016 7.00015C0.666016 3.54015 3.29935 0.700155 6.66601 0.366821V1.71349C4.03268 2.04015 1.99935 4.28015 1.99935 7.00015C1.99935 9.72015 4.03268 11.9602 6.66601 12.2868Z" fill="#141B38"/>
</svg>
