<svg width="16" height="17" viewBox="0 0 16 17" fill="none" xmlns="http://www.w3.org/2000/svg">
<path d="M8.00001 1.85999C4.33334 1.85999 1.33334 4.85332 1.33334 8.53999C1.33334 11.8733 3.77334 14.64 6.96001 15.14V10.4733H5.26668V8.53999H6.96001V7.06665C6.96001 5.39332 7.95334 4.47332 9.48001 4.47332C10.2067 4.47332 10.9667 4.59999 10.9667 4.59999V6.24665H10.1267C9.30001 6.24665 9.04001 6.75999 9.04001 7.28665V8.53999H10.8933L10.5933 10.4733H9.04001V15.14C10.611 14.8919 12.0415 14.0903 13.0733 12.88C14.1051 11.6697 14.6702 10.1304 14.6667 8.53999C14.6667 4.85332 11.6667 1.85999 8.00001 1.85999Z" fill="#006BFA"/>
</svg>
