<svg width="14" height="15" viewBox="0 0 14 15" fill="none" xmlns="http://www.w3.org/2000/svg">
<path d="M6.33337 5.50001H7.66671V4.16668H6.33337V5.50001ZM7.00004 12.8333C4.06004 12.8333 1.66671 10.44 1.66671 7.50001C1.66671 4.56001 4.06004 2.16668 7.00004 2.16668C9.94004 2.16668 12.3334 4.56001 12.3334 7.50001C12.3334 10.44 9.94004 12.8333 7.00004 12.8333ZM7.00004 0.833344C6.12456 0.833344 5.25766 1.00578 4.44882 1.34081C3.63998 1.67584 2.90505 2.16691 2.286 2.78596C1.03575 4.03621 0.333374 5.7319 0.333374 7.50001C0.333374 9.26812 1.03575 10.9638 2.286 12.2141C2.90505 12.8331 3.63998 13.3242 4.44882 13.6592C5.25766 13.9942 6.12456 14.1667 7.00004 14.1667C8.76815 14.1667 10.4638 13.4643 11.7141 12.2141C12.9643 10.9638 13.6667 9.26812 13.6667 7.50001C13.6667 6.62453 13.4943 5.75762 13.1592 4.94879C12.8242 4.13995 12.3331 3.40502 11.7141 2.78596C11.095 2.16691 10.3601 1.67584 9.55126 1.34081C8.74243 1.00578 7.87552 0.833344 7.00004 0.833344ZM6.33337 10.8333H7.66671V6.83334H6.33337V10.8333Z" fill="#141B38"/>
</svg>
