<svg width="15" height="8" viewBox="0 0 15 8" fill="none" xmlns="http://www.w3.org/2000/svg">
<path d="M2.09998 4.00002C2.09998 2.86002 3.02665 1.93335 4.16665 1.93335H6.83331V0.666687H4.16665C3.28259 0.666687 2.43474 1.01788 1.80962 1.643C1.1845 2.26812 0.833313 3.11597 0.833313 4.00002C0.833313 4.88408 1.1845 5.73192 1.80962 6.35704C2.43474 6.98216 3.28259 7.33335 4.16665 7.33335H6.83331V6.06669H4.16665C3.02665 6.06669 2.09998 5.14002 2.09998 4.00002ZM4.83331 4.66669H10.1666V3.33335H4.83331V4.66669ZM10.8333 0.666687H8.16665V1.93335H10.8333C11.9733 1.93335 12.9 2.86002 12.9 4.00002C12.9 5.14002 11.9733 6.06669 10.8333 6.06669H8.16665V7.33335H10.8333C11.7174 7.33335 12.5652 6.98216 13.1903 6.35704C13.8155 5.73192 14.1666 4.88408 14.1666 4.00002C14.1666 3.11597 13.8155 2.26812 13.1903 1.643C12.5652 1.01788 11.7174 0.666687 10.8333 0.666687Z" fill="#141B38"/>
</svg>
