<svg width="16" height="17" viewBox="0 0 16 17" fill="none" xmlns="http://www.w3.org/2000/svg">
<path d="M12.3628 4.78024C12.2751 4.73489 12.1897 4.68518 12.1069 4.63129C11.8662 4.47217 11.6455 4.28468 11.4496 4.07285C10.9594 3.51199 10.7764 2.94299 10.7089 2.54462H10.7116C10.6553 2.21395 10.6786 2 10.6821 2H8.44947V10.6332C8.44947 10.7491 8.44947 10.8637 8.4446 10.9769C8.4446 10.9909 8.44324 11.0039 8.44243 11.0191C8.44243 11.0253 8.44243 11.0318 8.44108 11.0383C8.44108 11.04 8.44108 11.0416 8.44108 11.0432C8.41754 11.353 8.31825 11.6522 8.15193 11.9146C7.9856 12.177 7.75735 12.3944 7.48725 12.5479C7.20574 12.708 6.88736 12.792 6.56348 12.7916C5.52326 12.7916 4.6802 11.9434 4.6802 10.8959C4.6802 9.84836 5.52326 9.00015 6.56348 9.00015C6.76039 8.99997 6.95609 9.03095 7.14331 9.09196L7.14602 6.8187C6.57766 6.74528 6.00026 6.79045 5.45024 6.95136C4.90022 7.11226 4.38952 7.38541 3.95034 7.75357C3.56553 8.08792 3.24201 8.48687 2.99435 8.93245C2.9001 9.09494 2.54452 9.74788 2.50146 10.8076C2.47437 11.4091 2.65501 12.0322 2.74113 12.2898V12.2952C2.7953 12.4469 3.00518 12.9644 3.34723 13.4007C3.62304 13.7507 3.9489 14.0581 4.31432 14.3131V14.3077L4.31974 14.3131C5.40058 15.0476 6.59896 14.9994 6.59896 14.9994C6.80641 14.991 7.50133 14.9994 8.2905 14.6253C9.16579 14.2107 9.6641 13.593 9.6641 13.593C9.98244 13.2239 10.2356 12.8032 10.4126 12.3491C10.6147 11.818 10.6821 11.1811 10.6821 10.9265V6.34639C10.7092 6.36264 11.0699 6.60123 11.0699 6.60123C11.0699 6.60123 11.5896 6.93434 12.4005 7.15126C12.9822 7.30563 13.7659 7.33813 13.7659 7.33813V5.12174C13.4913 5.15153 12.9337 5.06487 12.3628 4.78024Z" fill="#141B38"/>
</svg>
