<svg width="21" height="15" viewBox="0 0 21 15" fill="none" xmlns="http://www.w3.org/2000/svg">
<path d="M2.2 13.575C1.76667 13.4583 1.39167 13.2417 1.075 12.925C0.758333 12.6083 0.541667 12.2333 0.425 11.8C0.325 11.4167 0.245833 10.95 0.1875 10.4C0.129167 9.85 0.0833333 9.325 0.05 8.825C0.0166667 8.225 0 7.61667 0 7C0 6.38333 0.0166667 5.775 0.05 5.175C0.0833333 4.675 0.129167 4.15 0.1875 3.6C0.245833 3.05 0.325 2.58333 0.425 2.2C0.541667 1.76667 0.758333 1.39167 1.075 1.075C1.39167 0.758333 1.76667 0.541667 2.2 0.425C2.58333 0.325 3.20417 0.245833 4.0625 0.1875C4.92083 0.129167 5.79167 0.0833333 6.675 0.05C7.70833 0.0166667 8.81667 0 10 0C11.1833 0 12.2917 0.0166667 13.325 0.05C14.2083 0.0833333 15.0792 0.129167 15.9375 0.1875C16.7958 0.245833 17.4167 0.325 17.8 0.425C18.2333 0.541667 18.6083 0.758333 18.925 1.075C19.2417 1.39167 19.4583 1.76667 19.575 2.2C19.725 2.76667 19.8292 3.3875 19.8875 4.0625C19.9458 4.7375 19.9833 5.40833 20 6.075C20 6.40833 19.8667 6.675 19.6 6.875C19.3333 7.075 19.0333 7.13333 18.7 7.05C18.5833 7.03333 18.4708 7.02083 18.3625 7.0125C18.2542 7.00417 18.1333 7 18 7C16.6167 7 15.4375 7.4875 14.4625 8.4625C13.4875 9.4375 13 10.6167 13 12C13 12.1333 13.0042 12.2625 13.0125 12.3875C13.0208 12.5125 13.0417 12.6417 13.075 12.775C13.125 13.075 13.0583 13.35 12.875 13.6C12.6917 13.85 12.4583 13.975 12.175 13.975C11.875 13.975 11.5917 13.9792 11.325 13.9875C11.0583 13.9958 10.825 14 10.625 14H10C8.81667 14 7.70833 13.9833 6.675 13.95C5.79167 13.9167 4.92083 13.8708 4.0625 13.8125C3.20417 13.7542 2.58333 13.675 2.2 13.575ZM8.75 9.575L12.45 7.425C12.6167 7.325 12.7 7.18333 12.7 7C12.7 6.81667 12.6167 6.675 12.45 6.575L8.75 4.425C8.58333 4.325 8.41667 4.32917 8.25 4.4375C8.08333 4.54583 8 4.69167 8 4.875V9.125C8 9.30833 8.08333 9.45417 8.25 9.5625C8.41667 9.67083 8.58333 9.675 8.75 9.575ZM17 13H16C15.7167 13 15.4792 12.9042 15.2875 12.7125C15.0958 12.5208 15 12.2833 15 12C15 11.7167 15.0958 11.4792 15.2875 11.2875C15.4792 11.0958 15.7167 11 16 11H17V10C17 9.71667 17.0958 9.47917 17.2875 9.2875C17.4792 9.09583 17.7167 9 18 9C18.2833 9 18.5208 9.09583 18.7125 9.2875C18.9042 9.47917 19 9.71667 19 10V11H20C20.2833 11 20.5208 11.0958 20.7125 11.2875C20.9042 11.4792 21 11.7167 21 12C21 12.2833 20.9042 12.5208 20.7125 12.7125C20.5208 12.9042 20.2833 13 20 13H19V14C19 14.2833 18.9042 14.5208 18.7125 14.7125C18.5208 14.9042 18.2833 15 18 15C17.7167 15 17.4792 14.9042 17.2875 14.7125C17.0958 14.5208 17 14.2833 17 14V13Z" fill="#2C324C"/>
</svg>
